<svg xmlns="http://www.w3.org/2000/svg" width="457.148" height="457.148" viewBox="0 0 457.148 457.148">
    <path d="M452.766 4.923c-14.801-14.806-65.045 11.435-79.847 26.241l-59.28 59.284H43.984a13.35 13.35 0 1 0-4.909 25.765l178.319 70.471-109.346 109.342H4.627a4.637 4.637 0 0 0-4.545 3.766 4.622 4.622 0 0 0 2.846 5.171l87.028 34.396a37.514 37.514 0 0 0 2.101 6.414l-3.807 3.815c-5.424 5.421-5.424 14.204 0 19.631 5.417 5.424 14.217 5.424 19.634 0l3.716-3.714a37.488 37.488 0 0 0 6.49 2.188l33.545 85.971a4.634 4.634 0 0 0 5.167 2.867 4.548 4.548 0 0 0 2.415-1.279 4.578 4.578 0 0 0 1.355-3.273V350.736l111.08-111.076 69.807 178.907a13.365 13.365 0 0 0 14.905 8.268 13.4 13.4 0 0 0 6.972-3.67 13.418 13.418 0 0 0 3.92-9.458V144.059l59.281-59.283c14.796-14.805 41.03-65.049 26.229-79.853z"/>
</svg>
